# xmcd
#
# Track frame offsets: 
#        150
#        11096
#        11950
#        12775
#        13292
#        13743
#        14193
#        14851
#        15846
#        26549
#        38289
#        41484
#        52098
#        64403
#        72958
#        74225
#        75617
#        76977
#        78381
#        78846
#        79559
#        92367
#        93329
#        94089
#        105856
#        117825
#        126499
#        138280
#        139419
#        151768
#        156956
#        166354
#        167327
#        168426
#        168902
#        169748
#        178800
#        186923
#        198719
#        207248
#        215462
#        223473
#        241892
#        251626
#        261004
#        269351
#        277550
#        285592
#        292557
#        305419
#        306441
#        307200
#        318914
#        330851
#        335352
#        336324
#        337588
#        338973
#        340305
#        341722
#        342691
#        343773
#        344250
#
# Disc length: 4597 seconds
#
# Revision: 0
# Processed by: cddbd v1.5.2PL0 Copyright (c) Steve Scherf et al.
# Submitted via: ExactAudioCopy v0.95b3
#
DISCID=8d11f33f
DTITLE=The Beatles  - A Hard Day's Night Deluxe (Purple Chick) - Disc 
DTITLE=3 - sessions  FLAC
DYEAR=1900
DGENRE=
TTITLE0=This Boy - take 15
TTITLE1=Komm Gib Mir Deine Hand - take 1
TTITLE2=Komm Gib Mir Deine Hand - take 2
TTITLE3=Komm Gib Mir Deine Hand - take 7
TTITLE4=Komm Gib Mir Deine Hand - take 9
TTITLE5=Komm Gib Mir Deine Hand - take 10
TTITLE6=Komm Gib Mir Deine Hand - take unknown
TTITLE7=Sie Liebt Dich - take unknown
TTITLE8=Can't Buy Me Love - take 1
TTITLE9=Can't Buy Me Love - take 2
TTITLE10=Can't Buy Me Love - take 3
TTITLE11=Can't Buy Me Love - take 4
TTITLE12=You Can't Do That - take 6
TTITLE13=And I Love Her - take 2
TTITLE14=I Should Have Known Better - take 8
TTITLE15=I Should Have Known Better - take 11
TTITLE16=And I Love Her - take 11
TTITLE17=Tell Me Why - take 4
TTITLE18=I Call Your Name - studio cha
TTITLE19=Train Music
TTITLE20=A Hard Day's Night - take 1
TTITLE21=A Hard Day's Night - take 2
TTITLE22=A Hard Day's Night - take 3
TTITLE23=A Hard Day's Night - take 4
TTITLE24=A Hard Day's Night - take 5
TTITLE25=A Hard Day's Night - take 6
TTITLE26=A Hard Day's Night - take 7
TTITLE27=A Hard Day's Night - take 8
TTITLE28=A Hard Day's Night - take 9
TTITLE29=I'll Be Back - take 2
TTITLE30=I'll Be Back - take 3
TTITLE31=I'll Be Back - take 12
TTITLE32=I'll Be Back - take 13
TTITLE33=I'll Be Back - take 14
TTITLE34=I'll Be Back - take 15
TTITLE35=You Know What to Do
TTITLE36=No Reply (Demo)
TTITLE37=Twist And Shout
TTITLE38=39 Roll Over Beethoven - 39 Roll Over Beethoven
TTITLE39=I Wanna Be Your Man
TTITLE40=Long Tall Sally
TTITLE41=Medley
TTITLE42=Can't Buy Me Love
TTITLE43=Shout
TTITLE44=Boys (stereo)
TTITLE45=I Wanna Be Your Man (stereo)
TTITLE46=Long Tall Sally (stereo)
TTITLE47=Shout (stereo)
TTITLE48=A Hard Days Night - monitor mix take 1
TTITLE49=A Hard Days Night - monitor mix take 2
TTITLE50=A Hard Days Night - monitor mix take 3
TTITLE51=A Hard Days Night - monitor mix take 4
TTITLE52=A Hard Days Night - monitor mix take 5
TTITLE53=A Hard Days Night - monitor mix take 6
TTITLE54=Sie Liebt Dich - take unknown - video mix
TTITLE55=I Should Have Known Better - take 7 - video mix
TTITLE56=I Should Have Known Better - take 11 - video mix
TTITLE57=And I Love Her  - take 11 - video mix
TTITLE58=Tell Me Why - take 4 - DVD mix
TTITLE59=I'll Be Back - take 12 - video mix
TTITLE60=I'll Be Back - take 13 - video mix
TTITLE61=I'll Be Back - take 14 - video mix
TTITLE62=I'll Be Back - take 15 - video mix
EXTD=
EXTT0=
EXTT1=
EXTT2=
EXTT3=
EXTT4=
EXTT5=
EXTT6=
EXTT7=
EXTT8=
EXTT9=
EXTT10=
EXTT11=
EXTT12=
EXTT13=
EXTT14=
EXTT15=
EXTT16=
EXTT17=
EXTT18=
EXTT19=
EXTT20=
EXTT21=
EXTT22=
EXTT23=
EXTT24=
EXTT25=
EXTT26=
EXTT27=
EXTT28=
EXTT29=
EXTT30=
EXTT31=
EXTT32=
EXTT33=
EXTT34=
EXTT35=
EXTT36=
EXTT37=
EXTT38=
EXTT39=
EXTT40=
EXTT41=
EXTT42=
EXTT43=
EXTT44=
EXTT45=
EXTT46=
EXTT47=
EXTT48=
EXTT49=
EXTT50=
EXTT51=
EXTT52=
EXTT53=
EXTT54=
EXTT55=
EXTT56=
EXTT57=
EXTT58=
EXTT59=
EXTT60=
EXTT61=
EXTT62=
PLAYORDER=
